<?xml version="1.0" standalone="no"?>
<!DOCTYPE svg PUBLIC "-//W3C//DTD SVG 20010904//EN"
 "http://www.w3.org/TR/2001/REC-SVG-20010904/DTD/svg10.dtd">
<svg version="1.0" xmlns="http://www.w3.org/2000/svg"
 width="460.000000pt" height="135.000000pt" viewBox="0 0 460.000000 135.000000"
 preserveAspectRatio="xMidYMid meet">

<g transform="translate(0.000000,135.000000) scale(0.100000,-0.100000)"
fill="#000000" stroke="none">
<path d="M627 915 l-47 -54 2 -248 3 -248 233 -3 233 -2 54 55 c29 30 54 63
56 73 2 9 1 91 -2 182 l-5 165 -1 -173 c-1 -189 3 -170 -60 -239 -16 -18 -21
-16 -25 9 -2 12 -9 23 -16 26 -7 2 -13 -2 -11 -9 1 -8 1 -26 0 -41 l-1 -28
-227 0 -227 0 47 48 47 48 0 204 0 205 196 -3 c134 -2 194 0 189 8 -4 6 -74
10 -191 10 l-184 0 -1 28 c-1 15 -1 30 0 35 3 19 -19 2 -62 -48z"/>
<path d="M1391 856 l-53 -63 -34 36 c-23 24 -32 29 -28 16 4 -11 4 -17 0 -14
-4 4 -9 17 -11 30 -3 12 -11 30 -20 38 -13 14 -15 5 -15 -87 0 -106 -1 -102
43 -106 6 -1 13 9 13 22 1 12 2 25 3 28 0 4 13 -1 27 -11 23 -15 27 -15 43 -1
24 22 31 20 31 -8 0 -27 34 -46 51 -29 6 6 8 55 7 111 l-3 101 -54 -63z"/>
<path d="M1492 810 c3 -105 3 -105 28 -105 l25 0 0 104 0 104 -28 1 -28 2 3
-106z"/>
<path d="M1580 815 c0 -109 -1 -105 43 -109 7 -1 14 17 17 46 l5 47 59 -45
c33 -24 63 -44 68 -44 9 0 9 155 0 185 -4 12 -16 20 -29 21 -21 1 -23 -4 -23
-48 0 -39 -3 -48 -17 -48 -22 1 -95 55 -86 63 7 8 -15 37 -28 37 -5 0 -9 -47
-9 -105z"/>
<path d="M1810 816 c0 -110 7 -125 51 -111 17 6 19 17 18 88 -1 91 -10 139
-23 119 -5 -9 -12 -9 -27 -2 -18 10 -19 7 -19 -94z"/>
<path d="M2000 816 c0 -74 4 -105 13 -109 6 -2 39 -4 72 -3 57 1 60 2 60 26 0
23 -3 24 -42 22 -38 -3 -41 -2 -36 17 4 17 13 21 43 21 33 0 38 3 38 24 0 22
-4 23 -44 18 -38 -4 -43 -2 -38 12 4 10 18 16 40 16 35 0 51 17 41 44 -4 10
-17 11 -54 6 -26 -4 -58 -4 -70 1 -23 8 -23 8 -23 -95z"/>
<path d="M2180 818 c0 -61 4 -109 10 -113 6 -3 19 -3 30 0 16 5 20 15 20 46 0
21 2 39 5 39 3 0 30 -18 60 -40 30 -22 57 -40 60 -40 3 0 5 46 5 103 l0 102
-31 0 c-30 0 -31 0 -27 -48 2 -31 -1 -47 -9 -47 -18 0 -83 41 -83 52 0 5 5 6
12 2 7 -5 8 -3 4 5 -5 7 -10 10 -13 7 -3 -3 -14 5 -24 17 -18 22 -18 20 -19
-85z"/>
<path d="M2400 893 c0 -16 7 -27 20 -30 18 -5 20 -14 20 -79 0 -70 1 -74 24
-80 39 -10 46 2 46 82 0 67 2 74 20 74 15 0 20 7 20 29 0 28 -1 29 -38 20 -20
-4 -54 -4 -75 0 -35 8 -37 8 -37 -16z"/>
<path d="M2582 811 l3 -106 27 -3 c25 -3 27 0 30 40 l3 43 20 -38 c20 -39 58
-58 77 -39 6 6 4 20 -7 42 -15 29 -15 35 -1 65 19 39 9 77 -20 82 -10 1 -45 6
-77 11 l-58 8 3 -105z m96 32 c-5 -26 -38 -29 -38 -4 0 15 6 21 21 21 14 0 19
-5 17 -17z"/>
<path d="M2906 911 c-10 -4 -41 -6 -68 -4 l-49 3 3 -103 3 -102 65 0 c62 0 65
1 68 25 3 24 1 25 -38 22 -35 -4 -40 -2 -40 17 0 18 6 21 40 21 36 0 40 3 40
24 0 22 -3 24 -40 19 -33 -5 -40 -3 -40 11 0 12 10 16 40 16 38 0 40 2 40 30
0 17 -1 30 -2 29 -2 0 -12 -4 -22 -8z"/>
<path d="M2960 816 c0 -104 0 -106 24 -112 35 -8 46 2 46 42 0 32 2 34 33 34
20 0 41 8 50 18 28 30 17 116 -12 98 -6 -4 -11 -2 -11 4 0 6 -21 10 -54 9 -29
-1 -58 1 -65 5 -8 5 -11 -22 -11 -98z m108 32 c-7 -19 -38 -22 -38 -4 0 10 9
16 21 16 12 0 19 -5 17 -12z"/>
<path d="M3591 819 c-28 -56 -50 -103 -49 -104 2 -1 15 -5 30 -9 20 -5 30 -1
41 15 14 19 16 19 25 4 8 -16 9 -16 16 0 6 17 8 17 27 -3 21 -23 53 -29 64
-12 5 8 -65 157 -93 198 -6 8 -25 -19 -61 -89z m69 -61 c0 -5 -7 -8 -15 -8
-17 0 -18 2 -9 25 5 13 8 14 15 3 5 -7 9 -16 9 -20z"/>
<path d="M3842 908 c-43 -11 -72 -52 -72 -100 0 -32 7 -47 35 -75 32 -32 40
-35 76 -30 54 7 99 49 99 91 0 30 -1 31 -50 32 -45 0 -50 -2 -50 -22 0 -12 5
-24 11 -26 7 -2 6 -8 -4 -17 -13 -10 -19 -9 -36 8 -12 12 -21 30 -21 40 0 28
29 54 54 47 22 -6 56 18 56 39 0 16 -58 23 -98 13z"/>
<path d="M4014 911 c-2 -2 -4 -48 -4 -102 0 -113 0 -113 96 -107 45 3 49 5 52
30 3 25 2 26 -37 21 -37 -5 -41 -3 -41 16 0 18 6 21 40 21 36 0 40 2 40 26 0
25 -2 25 -40 19 -32 -5 -40 -4 -40 9 0 10 12 16 38 18 31 3 37 7 40 28 3 25 2
25 -68 25 -40 0 -73 -2 -76 -4z"/>
<path d="M3178 880 c-28 -28 -30 -35 -25 -78 11 -100 116 -134 190 -61 26 27
29 35 24 75 -7 66 -33 89 -102 92 -51 2 -59 -1 -87 -28z m118 -45 c15 -23 15
-27 0 -50 -9 -14 -25 -25 -36 -25 -11 0 -27 11 -36 25 -15 23 -15 27 0 50 9
14 25 25 36 25 11 0 27 -11 36 -25z"/>
<path d="M3405 887 c-21 -33 -4 -81 36 -97 16 -7 29 -19 29 -26 0 -16 -26 -19
-35 -4 -4 7 -14 6 -28 -1 -21 -12 -21 -12 8 -36 49 -43 115 -15 115 48 0 28
-39 69 -66 69 -8 0 -14 7 -14 15 0 17 21 20 36 5 7 -7 16 -5 29 4 30 22 3 46
-51 46 -35 0 -47 -5 -59 -23z"/>
<path d="M1680 840 c0 -5 5 -10 11 -10 5 0 7 5 4 10 -3 6 -8 10 -11 10 -2 0
-4 -4 -4 -10z"/>
<path d="M2728 659 c-14 -8 -18 -23 -18 -69 0 -32 5 -62 10 -65 6 -4 10 15 10
49 0 31 5 56 11 58 6 2 10 11 8 20 -3 13 -8 14 -21 7z"/>
<path d="M2790 653 c0 -14 6 -23 16 -23 12 0 15 -10 13 -53 -1 -29 1 -59 6
-67 6 -10 4 -12 -9 -7 -13 5 -17 3 -13 -6 8 -21 -62 -21 -84 -1 -15 13 -19 31
-19 79 0 56 -11 85 -32 85 -11 0 -10 -27 1 -32 5 -1 11 -29 14 -61 7 -81 29
-107 90 -107 60 0 87 34 87 110 0 33 4 60 10 60 6 0 10 10 10 22 0 21 -1 21
-17 5 -11 -11 -20 -41 -24 -80 l-7 -62 1 64 c0 48 -3 66 -14 69 -8 3 -17 10
-21 16 -5 6 -8 1 -8 -11z"/>
<path d="M3010 652 c0 -11 6 -22 12 -24 7 -3 15 -31 19 -64 l6 -59 2 79 c0 44
-2 76 -6 73 -3 -4 -12 -2 -20 4 -10 9 -13 7 -13 -9z"/>
<path d="M3170 645 c-2 -21 -4 -24 -7 -10 -3 18 -9 20 -51 15 -42 -4 -47 -8
-50 -32 -2 -16 1 -28 7 -28 6 0 11 9 11 20 0 16 7 20 30 20 20 0 30 -5 30 -15
0 -15 36 -21 43 -7 2 4 0 21 -4 37 l-7 30 -2 -30z"/>
<path d="M3330 652 c0 -12 4 -22 10 -22 5 0 10 -30 12 -67 2 -44 7 -67 16 -69
7 -1 8 0 2 3 -13 6 -13 53 0 53 6 0 9 -3 9 -7 -4 -26 3 -35 11 -15 9 22 33 28
64 16 18 -7 22 -44 5 -44 -5 0 -7 -4 -4 -10 4 -6 -16 -10 -54 -10 -38 0 -61 4
-64 13 -3 6 -6 2 -6 -10 -1 -22 3 -23 72 -23 96 0 106 10 104 102 -2 62 -17
112 -17 55 0 -14 -4 -29 -10 -32 -6 -4 -3 -16 6 -31 13 -18 14 -30 7 -47 -9
-20 -10 -19 -11 12 0 18 -4 36 -7 40 -4 3 -31 6 -61 6 l-54 0 0 35 c0 19 -7
44 -15 54 -15 19 -15 19 -15 -2z"/>
<path d="M3650 650 c0 -11 5 -20 10 -20 6 0 10 -27 10 -60 0 -33 4 -60 10 -60
6 0 10 28 10 65 0 39 -4 65 -11 65 -5 0 -8 4 -5 9 3 5 -1 11 -9 15 -10 4 -15
-1 -15 -14z"/>
<path d="M3809 658 c-1 -7 -1 -19 0 -25 1 -7 -3 -13 -9 -13 -5 0 -10 7 -10 16
0 12 -9 14 -42 12 -39 -3 -43 -6 -46 -30 -2 -16 1 -28 7 -28 6 0 11 9 11 20 0
16 7 20 30 20 20 0 30 -5 30 -15 0 -8 9 -15 20 -15 16 0 20 7 20 35 0 33 -9
50 -11 23z"/>
<path d="M4026 649 c2 -3 -5 -14 -16 -24 -22 -20 -29 -105 -9 -105 7 0 9 9 6
21 -6 24 8 70 26 81 23 15 55 8 60 -12 6 -23 35 -27 43 -5 4 8 3 23 -1 33 -7
16 -8 16 -14 -2 -6 -16 -8 -17 -14 -4 -3 10 -21 17 -45 20 -22 2 -39 1 -36 -3z"/>
<path d="M1230 638 c0 -5 241 -8 535 -8 294 0 535 3 535 8 0 4 -241 7 -535 7
-294 0 -535 -3 -535 -7z"/>
<path d="M2375 625 c-28 -27 -32 -70 -11 -98 13 -16 14 -14 9 22 -7 48 15 81
54 81 26 0 63 -32 63 -55 0 -8 5 -15 11 -15 6 0 8 7 5 16 -3 9 -9 26 -12 39
-10 41 -82 47 -119 10z"/>
<path d="M3381 618 c1 -23 3 -26 6 -10 3 17 11 22 34 22 17 0 32 -6 35 -15 9
-23 26 -18 22 8 -3 19 -10 22 -50 25 l-48 3 1 -33z"/>
<path d="M2510 618 c5 -16 8 -52 7 -80 l-2 -53 -66 0 c-80 0 -109 19 -109 72
0 18 -4 33 -10 33 -14 0 -12 -24 6 -69 19 -47 56 -66 114 -57 23 4 41 2 45 -5
5 -7 13 -4 26 7 10 9 15 22 11 28 -3 6 -5 34 -4 61 2 34 -2 56 -12 70 -15 19
-16 19 -6 -7z"/>
<path d="M3972 615 c-23 -51 -5 -122 37 -145 25 -13 87 -13 112 0 20 11 27 40
9 40 -5 0 -10 -5 -10 -11 0 -5 -4 -7 -10 -4 -5 3 -10 2 -10 -3 0 -10 -56 -14
-83 -6 -9 3 -14 10 -11 16 4 6 3 8 -3 5 -12 -7 -33 34 -33 64 0 11 5 29 11 41
6 11 9 22 6 24 -2 2 -9 -7 -15 -21z"/>
<path d="M2337 623 c-4 -3 -7 -11 -7 -17 0 -6 5 -5 12 2 6 6 9 14 7 17 -3 3
-9 2 -12 -2z"/>
<path d="M3145 581 c-6 -5 -26 -11 -45 -13 -30 -3 -35 -7 -38 -30 -4 -33 13
-38 21 -7 5 18 11 21 37 17 21 -3 34 0 37 8 7 20 0 37 -12 25z"/>
<path d="M3780 581 c0 -6 -17 -11 -37 -13 -33 -3 -38 -7 -41 -30 -2 -16 1 -28
7 -28 6 0 11 9 11 20 0 17 7 20 40 20 33 0 40 3 40 20 0 11 -4 20 -10 20 -5 0
-10 -4 -10 -9z"/>
<path d="M1227 574 c-4 -4 -4 -11 -1 -15 3 -5 246 -9 540 -9 462 1 534 3 534
15 0 13 -72 15 -533 15 -294 0 -537 -3 -540 -6z"/>
<path d="M3150 518 c0 -4 7 -8 16 -8 9 0 14 -6 12 -12 -6 -18 -138 -23 -149
-6 -10 17 -23 3 -16 -17 5 -12 24 -15 92 -15 l85 0 0 33 c0 26 -4 33 -20 33
-11 0 -20 -4 -20 -8z"/>
<path d="M3811 508 c-1 -28 -2 -28 -70 -28 -46 0 -71 4 -74 13 -2 6 -8 9 -12
5 -4 -4 -5 -14 -2 -23 5 -12 23 -15 86 -15 44 0 82 4 85 8 3 5 1 22 -4 38 l-8
29 -1 -27z"/>
<path d="M1490 500 c-214 -4 -162 -6 273 -8 353 -1 537 1 537 8 0 10 -307 10
-810 0z"/>
</g>
</svg>
